<?xml version="1.0" standalone="no"?>
<!DOCTYPE svg PUBLIC "-//W3C//DTD SVG 1.1//EN" "http://www.w3.org/Graphics/SVG/1.1/DTD/svg11.dtd" >
<svg xmlns="http://www.w3.org/2000/svg">
<metadata></metadata>
<defs>
<font id="fibon_sansthin" horiz-adv-x="1544" >
<font-face units-per-em="2048" ascent="1638" descent="-410" />
<missing-glyph horiz-adv-x="493" />
<glyph unicode="&#xfb01;" horiz-adv-x="1159" d="M-20 907v119h231v47q0 199 122.5 319.5t309.5 120.5q75 0 186 -30l-30 -115q-113 29 -152 29q-138 0 -226.5 -87.5t-88.5 -236.5v-47h608v-1026h-117v907h-491v-907h-121v907h-231z" />
<glyph unicode="&#xfb02;" horiz-adv-x="1349" d="M90 907v119h234v47q0 198 123 319t307 121q106 0 223 -47v-1169q0 -178 174 -178q57 0 133 28l37 -108q-129 -39 -170 -39q-145 0 -219 77t-74 220v1085q-56 15 -102 15q-135 0 -224.5 -88.5t-89.5 -235.5v-1073h-118v907h-234z" />
<glyph unicode="&#xfb03;" horiz-adv-x="1677" d="M29 907v119h231v47q0 199 122 319.5t310 120.5q76 0 187 -30l-31 -115q-113 29 -152 29q-138 0 -227.5 -87.5t-89.5 -236.5v-47h416v47q0 199 121.5 319.5t308.5 120.5q73 0 190 -30l-37 -113q-103 27 -149 27q-137 0 -225.5 -87.5t-88.5 -236.5v-47h533v-1026h-121v907 h-412v-907h-120v907h-416v-907h-119v907h-231z" />
<glyph unicode="&#xfb04;" horiz-adv-x="2037" d="M102 907v119h232v47q0 199 122.5 319.5t309.5 120.5q75 0 186 -30l-30 -115q-113 29 -152 29q-138 0 -226.5 -87.5t-88.5 -236.5v-47h413v47q0 198 123 319t307 121q107 0 224 -47v-1169q0 -178 174 -178q57 0 133 28l37 -108q-129 -39 -170 -39q-145 0 -220 77t-75 220 v1085q-66 15 -101 15q-135 0 -223 -88t-88 -236v-1073h-121v907h-413v-907h-121v907h-232z" />
<glyph horiz-adv-x="0" />
<glyph horiz-adv-x="682" />
<glyph unicode=" "  horiz-adv-x="493" />
<glyph unicode="&#x09;" horiz-adv-x="493" />
<glyph unicode="&#xa0;" horiz-adv-x="493" />
<glyph unicode="!" horiz-adv-x="446" d="M141 76q0 33 21.5 53.5t56.5 20.5q29 0 52.5 -21.5t23.5 -52.5t-23.5 -53.5t-52.5 -22.5q-35 0 -56.5 21.5t-21.5 54.5zM158 369v1099h118v-1099h-118z" />
<glyph unicode="&#x22;" horiz-adv-x="524" d="M66 1130l71 398l115 -23l-72 -397zM258 1130l72 398l116 -23l-71 -397z" />
<glyph unicode="#" horiz-adv-x="1331" d="M82 369v118h194q12 78 68 371h-176v117h194l70 377l117 -21l-62 -356h422l70 377l117 -23l-62 -354h178v-117h-202l-64 -371h180v-118h-200l-68 -377l-117 22l62 355h-424l-68 -377l-116 22l61 355h-174zM397 487h424q11 64 70 371h-426z" />
<glyph unicode="$" horiz-adv-x="1280" d="M68 184l84 82q100 -82 195.5 -129t215.5 -57v625q-52 15 -90 27t-92 33.5t-92 43t-79.5 54t-67.5 68.5t-43 84t-17 103q0 99 39.5 179t107 131.5t153 80t181.5 31.5v162h117v-164q261 -26 498 -221l-86 -82q-100 80 -196 127.5t-216 58.5v-624q71 -22 126.5 -42.5 t127 -57.5t118.5 -78t79.5 -101t31.5 -129q-2 -107 -42.5 -190t-108 -133.5t-152 -76.5t-180.5 -28v-162h-117v164q-136 18 -264.5 78t-230.5 143zM203 1116q0 -48 22 -89t54.5 -69.5t83.5 -54.5t95.5 -42t104.5 -34v594q-70 -6 -130.5 -27t-112 -56.5t-82.5 -92.5t-35 -129 zM680 78q73 5 136.5 26.5t115 58t81.5 93t31 127.5q1 56 -29.5 102.5t-86.5 81.5t-114 58.5t-134 46.5v-594z" />
<glyph unicode="%" horiz-adv-x="1337" d="M82 1147q0 81 59 142t144 61q80 0 140 -58.5t60 -140.5q0 -91 -58.5 -148t-147.5 -57q-77 0 -137 62t-60 139zM88 201l1010 1155l94 -76l-1014 -1163zM201 1147q0 -36 24.5 -59t61.5 -23q34 0 57 24.5t23 61.5q0 34 -23 58t-57 24q-36 0 -61 -25t-25 -61zM817 352 q0 88 57.5 145.5t145.5 57.5q85 0 142 -58.5t57 -146.5t-60 -143t-149 -55q-82 0 -137.5 61t-55.5 139zM934 350q0 -34 25 -58t61 -24q34 0 58 25t24 59q0 36 -25 60t-59 24q-35 0 -59.5 -24.5t-24.5 -61.5z" />
<glyph unicode="&#x26;" horiz-adv-x="1406" d="M84 410q0 91 26 162t78.5 123.5t108.5 88t139 74.5q-40 43 -59.5 66.5t-45.5 63t-37 81t-11 90.5q0 139 99 240.5t239 101.5q74 0 148 -35.5t134 -101.5l-82 -82q-90 104 -200 104q-92 0 -158 -67.5t-66 -161.5q0 -87 60 -147l559 -621q48 82 84.5 195.5t48.5 216.5 l117 -4q-20 -137 -64.5 -271.5t-105.5 -224.5l43 -47l161 -180l-83 -76l-193 211q-197 -209 -485 -209q-90 0 -171.5 27.5t-145 78.5t-101 130t-37.5 174zM199 410q0 -138 99 -216.5t241 -78.5q115 0 221 48.5t188 133.5l-430 469q-72 -31 -121.5 -59.5t-98.5 -70.5 t-74 -98.5t-25 -127.5z" />
<glyph unicode="'" horiz-adv-x="319" d="M61 1128l72 398l117 -23l-72 -397z" />
<glyph unicode="(" horiz-adv-x="665" d="M74 750q0 268 113.5 524.5t318.5 458.5l84 -82q-190 -186 -293.5 -420.5t-103.5 -480.5q0 -244 104 -479.5t293 -420.5l-82 -86q-206 206 -320 462.5t-114 523.5z" />
<glyph unicode=")" horiz-adv-x="665" d="M57 1651l82 82q207 -201 320.5 -457.5t113.5 -525.5q0 -268 -113.5 -523.5t-320.5 -459.5l-80 88q190 185 294 418t104 477q0 246 -104 480.5t-296 420.5z" />
<glyph unicode="*" horiz-adv-x="665" d="M57 1315l62 104l145 -82v164h117v-164q17 9 48.5 26t56.5 31t44 25l60 -104l-144 -80q11 -7 19 -10q9 -5 57 -32.5t66 -35.5l-58 -106l-149 82v-162h-117v164q-25 -13 -73 -41t-72 -41l-58 106l140 76z" />
<glyph unicode="+" horiz-adv-x="966" d="M78 563v117h334v334h116v-334h336v-117h-336v-334h-116v334h-334z" />
<glyph unicode="," horiz-adv-x="98" d="M-45 -221l72 397l114 -22l-71 -398z" />
<glyph unicode="-" horiz-adv-x="966" d="M78 467v117h786v-117h-786z" />
<glyph unicode="." horiz-adv-x="487" d="M160 76q0 33 21.5 54.5t54.5 21.5q32 0 54.5 -21.5t22.5 -54.5q0 -30 -23 -52t-54 -22q-32 0 -54 21.5t-22 52.5z" />
<glyph unicode="/" horiz-adv-x="698" d="M-37 -125l647 1788l109 -37l-651 -1790z" />
<glyph unicode="0" horiz-adv-x="1226" d="M82 741q0 85 11 168.5t34 171t64.5 161.5t97.5 133t138 92.5t181 33.5q85 0 156.5 -24.5t122.5 -66.5t90.5 -101t64.5 -124t41 -140t22.5 -144t6.5 -141q0 -76 -6.5 -148t-23 -150.5t-42 -145.5t-67 -128t-95 -104t-128.5 -68.5t-164 -25.5q-82 0 -152.5 25.5t-121 69 t-91 104t-66 127t-42.5 141.5t-24 144.5t-7 139.5zM199 741q0 -82 10.5 -163t38 -167.5t69.5 -152t111.5 -107.5t157.5 -42q82 0 148 28.5t109.5 79t74.5 112.5t47 138.5t23 146.5t7 146q0 60 -4.5 117t-16.5 120.5t-30.5 118t-49 104.5t-70 86t-95 57t-121.5 21 q-93 0 -166.5 -42t-118 -107.5t-73.5 -153t-40 -171t-11 -169.5z" />
<glyph unicode="1" horiz-adv-x="845" d="M61 1198l498 318h98v-1516h-118v1368l-416 -268z" />
<glyph unicode="2" horiz-adv-x="1103" d="M76 1343q215 166 452 166q209 0 336 -121.5t127 -330.5q0 -168 -69.5 -295t-204.5 -248l-434 -391h710v-117h-913v94l557 500q82 71 130.5 131.5t79 143t30.5 182.5q0 156 -95.5 245t-253.5 89q-204 0 -381 -142z" />
<glyph unicode="3" horiz-adv-x="1155" d="M66 176l69 92q202 -149 408 -149q158 0 270.5 87t112.5 238q0 51 -11 92.5t-30.5 70t-46.5 50t-60 33t-70.5 20t-78 10.5t-82 3.5t-82.5 -0.5h-86v119h76q164 0 229 16q131 32 159 153q9 37 9 83q0 137 -85.5 213.5t-223.5 76.5q-164 0 -334 -122l-70 94q199 145 404 145 q191 0 309.5 -108t118.5 -299q0 -193 -131 -297q204 -86 204 -353q0 -106 -41.5 -191.5t-112 -139.5t-159.5 -82.5t-188 -28.5q-255 0 -477 174z" />
<glyph unicode="4" horiz-adv-x="1189" d="M82 487v93l700 921h111v-897h186v-117h-186v-487h-115v487h-696zM248 604h530v696z" />
<glyph unicode="5" horiz-adv-x="1191" d="M66 180l75 92q177 -155 412 -155q174 0 292 109.5t118 281.5q0 175 -95.5 272t-269.5 97q-63 0 -123 -20.5t-96 -43t-102 -69.5l-21 -15l-82 39l59 713h768v-117h-661l-39 -463q78 48 143.5 71t153.5 23q226 0 353.5 -130t127.5 -357q0 -225 -149 -366.5t-377 -141.5 q-282 0 -487 180z" />
<glyph unicode="6" horiz-adv-x="1206" d="M82 735q0 115 20.5 223t66 207.5t112 173.5t166.5 118t221 44q180 0 350 -86l-49 -102q-145 71 -301 71q-114 0 -206 -54t-148.5 -143.5t-86.5 -198t-32 -226.5q5 8 12.5 16t17.5 18.5t15 16.5q69 71 170.5 109.5t220.5 38.5q208 0 334.5 -129.5t126.5 -339.5 q0 -208 -140 -340t-352 -132q-97 0 -179 33t-141 91.5t-99.5 132t-63.5 159.5q-35 150 -35 299zM233 469q45 -144 139.5 -238t227.5 -94q161 0 268 99t107 256q0 159 -94 255.5t-250 96.5q-93 0 -173.5 -30.5t-131.5 -84.5q-13 -10 -26.5 -27t-31 -48t-27.5 -79.5t-8 -105.5 z" />
<glyph unicode="7" horiz-adv-x="1169" d="M82 1362v117h977v-105l-627 -1372h-125l621 1360h-846z" />
<glyph unicode="8" horiz-adv-x="1185" d="M82 395q0 287 289 416q-108 52 -169 130.5t-61 199.5q0 89 38.5 160t101.5 114t140 65.5t159 22.5q86 0 162 -22.5t136.5 -66.5t96 -116t35.5 -163q0 -216 -238 -347q66 -31 117 -66t95 -82.5t67.5 -110.5t23.5 -138q0 -80 -29 -147t-77.5 -113t-113 -78t-134.5 -46.5 t-143 -14.5q-90 0 -176 25t-158.5 73t-117 127t-44.5 178zM199 414q0 -61 21 -112t57.5 -86t85 -59t103 -35t112.5 -11q70 0 134.5 16t120.5 48t89.5 88t33.5 128q0 65 -26.5 118.5t-65.5 89t-98.5 65t-110.5 46.5t-118 33q-67 -18 -124.5 -45.5t-107 -67t-78 -95.5 t-28.5 -121zM258 1141q0 -209 356 -289q57 17 104 41t88 57.5t64 81t23 103.5q0 123 -90.5 187t-222.5 64q-60 0 -115.5 -15t-102.5 -43.5t-75.5 -77t-28.5 -109.5z" />
<glyph unicode="9" horiz-adv-x="1206" d="M82 1028q0 210 139.5 341.5t351.5 131.5q97 0 179.5 -33.5t141.5 -92t100 -132.5t63 -160q35 -131 35 -297q0 -115 -20 -223t-65.5 -207.5t-112 -173.5t-166.5 -118t-222 -44q-185 0 -350 86l49 103q147 -72 301 -72q92 0 169.5 35.5t132 96t93 140.5t57.5 169t21 182 q-28 -36 -43 -51q-69 -71 -170.5 -109.5t-220.5 -38.5q-209 0 -336 129.5t-127 337.5zM199 1028q0 -158 94.5 -254t251.5 -96q93 0 173.5 29.5t131.5 83.5q96 96 90 262q-45 144 -139.5 237.5t-227.5 93.5q-161 0 -267.5 -99t-106.5 -257z" />
<glyph unicode=":" horiz-adv-x="299" d="M70 76q0 34 20.5 55t54.5 21q31 0 53.5 -21.5t22.5 -54.5q0 -31 -22.5 -52.5t-53.5 -21.5q-33 0 -54 21.5t-21 52.5zM70 678q0 34 20.5 55t54.5 21q31 0 53.5 -21.5t22.5 -54.5q0 -32 -22.5 -53t-53.5 -21q-33 0 -54 21t-21 53z" />
<glyph unicode=";" horiz-adv-x="344" d="M61 -221l72 397l117 -22l-72 -398zM113 678q0 34 21 55t56 21q29 0 52.5 -22t23.5 -54q0 -31 -23.5 -52.5t-52.5 -21.5q-35 0 -56 20.5t-21 53.5z" />
<glyph unicode="&#x3c;" horiz-adv-x="995" d="M78 770v90l774 406l49 -109l-649 -344q599 -315 649 -342l-49 -111z" />
<glyph unicode="=" horiz-adv-x="966" d="M78 582v118h786v-118h-786zM78 934v117h786v-117h-786z" />
<glyph unicode="&#x3e;" horiz-adv-x="995" d="M66 471l653 342l-653 344l55 109l768 -406v-90l-768 -410z" />
<glyph unicode="?" horiz-adv-x="1048" d="M63 1266q226 223 490 223q170 0 279.5 -99.5t109.5 -267.5q0 -61 -14.5 -112.5t-34 -85t-55 -67t-61 -51t-68.5 -44.5q-42 -26 -63.5 -42t-55.5 -50.5t-51.5 -70.5t-31 -95.5t-13.5 -132.5h-119q0 93 17 168t39.5 121t63.5 88t70 62.5t78 49.5v-2q31 19 45.5 28.5 t40.5 29t38.5 37t28 43t21.5 57t6 69.5q0 118 -75.5 184t-194.5 66q-220 0 -408 -188zM356 76q0 32 23 53t55 21q29 0 52.5 -21.5t23.5 -52.5q0 -32 -22 -54t-54 -22q-31 0 -54.5 23.5t-23.5 52.5z" />
<glyph unicode="@" horiz-adv-x="1548" d="M86 545q0 131 50.5 252.5t144.5 218.5q197 194 473 194t473 -194q94 -97 144 -218t50 -253q0 -33 -8 -103q-18 -115 -113 -200q-88 -76 -215 -76q-90 3 -131 53q-76 -55 -196 -55q-145 0 -250 101t-105 243v70q0 145 104.5 246.5t250.5 101.5q151 0 264 -119 q18 -23 18 -49v-426q0 -49 47 -49q33 0 72.5 14.5t67.5 36.5q56 47 69 131q9 61 9 80q0 108 -42.5 208t-119.5 179q-163 160 -389 160t-389 -160q-77 -79 -119.5 -179t-42.5 -208q0 -109 42.5 -210.5t119.5 -180.5q78 -78 179 -119t210 -41q99 0 190 31q24 7 135 71l64 -100 q-49 -31 -162 -80q-100 -39 -227 -39q-275 0 -473 195q-94 94 -144.5 215.5t-50.5 257.5zM520 508q0 -93 70.5 -160t167.5 -67q95 0 166 65v395q-72 66 -166 66q-97 0 -167.5 -67t-70.5 -162v-70z" />
<glyph unicode="A" d="M66 0l653 1522h94l625 -1522h-129l-154 373h-801q-1 -4 -59 -135q-9 -22 -48.5 -109t-56.5 -129h-124zM399 489h711q-60 148 -172.5 419t-171.5 419z" />
<glyph unicode="B" horiz-adv-x="1263" d="M82 0v1501h385q82 0 154 -8.5t151 -33.5t135 -65.5t92.5 -110.5t36.5 -163q0 -105 -48 -188.5t-130 -134.5q291 -84 291 -383q0 -96 -37.5 -170.5t-96 -119t-139 -73.5t-158 -40t-161.5 -11h-475zM199 117h358q67 0 128 7t126 27.5t111.5 52.5t77 86t30.5 124 q0 305 -467 305h-364v-602zM199 838h315q78 0 146 14t128.5 44.5t96 88t35.5 135.5q0 55 -20 99t-56.5 71.5t-79.5 47t-97.5 29t-101 13.5t-98.5 4h-268v-546z" />
<glyph unicode="C" horiz-adv-x="1423" d="M84 754q0 218 78.5 388t236.5 270.5t373 100.5q163 0 288.5 -50.5t256.5 -170.5l-78 -86q-114 103 -221.5 146t-245.5 43q-136 0 -245 -48.5t-180 -135t-108.5 -203t-37.5 -254.5t37.5 -255t108.5 -203.5t180 -135.5t245 -49q137 0 246 40.5t223 133.5l76 -90 q-133 -108 -260 -155.5t-285 -47.5q-314 0 -501 207.5t-187 554.5z" />
<glyph unicode="D" horiz-adv-x="1372" d="M82 0v1501h399q150 0 277.5 -41.5t217.5 -112.5t153.5 -166.5t93.5 -203t30 -221.5t-30.5 -223t-94 -206t-153 -169.5t-216 -115t-274.5 -42.5h-403zM201 115h284q125 0 231.5 36t182.5 98t130 144t80 174t26 189q0 95 -25.5 185.5t-79 171t-129.5 140.5t-184.5 95.5 t-235.5 35.5h-280v-1269z" />
<glyph unicode="E" horiz-adv-x="1232" d="M82 0v1501h1036v-117h-919v-684h618v-118h-618v-465h919v-117h-1036z" />
<glyph unicode="F" horiz-adv-x="1228" d="M82 0v1501h1032v-117h-915v-684h684v-120h-684v-580h-117z" />
<glyph unicode="G" horiz-adv-x="1452" d="M86 748q0 157 47.5 293.5t134.5 239t220.5 161.5t295.5 59q314 0 559 -211l-83 -88q-205 182 -476 182q-181 0 -314.5 -84t-201 -227t-67.5 -325q0 -185 69 -326.5t207 -223t328 -81.5q242 0 391 102l18 520h115l-16 -577q-215 -162 -508 -162q-224 0 -388 97t-247.5 265 t-83.5 386z" />
<glyph unicode="H" horiz-adv-x="1325" d="M82 0v1501h119v-801h889v801h116v-1501h-116v582h-889v-582h-119z" />
<glyph unicode="I" horiz-adv-x="450" d="M160 0v1501h119v-1501h-119z" />
<glyph unicode="J" horiz-adv-x="907" d="M70 18l30 121q82 -26 158 -26q155 0 247.5 83.5t92.5 233.5v1069h117v-1069q0 -201 -125 -318.5t-332 -117.5q-94 0 -188 24z" />
<glyph unicode="K" horiz-adv-x="1277" d="M82 0v1501h119v-659h215q103 129 302 381t220 278h149l-567 -713l692 -788h-159l-633 723h-219v-723h-119z" />
<glyph unicode="L" horiz-adv-x="1234" d="M82 0v1497h117v-1380h921v-117h-1038z" />
<glyph unicode="M" horiz-adv-x="1800" d="M86 0l158 1499h108l516 -870q40 66 235 384t296 486h112l158 -1499h-119l-137 1292l-293 -483l-202 -336h-97l-481 813l-37 -338q-13 -117 -102 -948h-115z" />
<glyph unicode="N" horiz-adv-x="1320" d="M82 0v1499h119l884 -1292v1294h117v-1501h-115l-886 1294v-1294h-119z" />
<glyph unicode="O" d="M86 752q0 114 26 222t80.5 204t131.5 167.5t187 113.5t239 42q161 0 291 -64t210.5 -171t123 -239.5t42.5 -276.5q0 -114 -26 -222t-80 -204t-131 -168t-187 -114t-239 -42q-130 0 -240.5 42t-188 114t-132.5 168.5t-81 204.5t-26 223zM203 745q0 -120 35 -230.5 t101 -200.5t173.5 -143.5t241.5 -53.5q128 0 233 54.5t170.5 145t101 203t35.5 234.5q0 96 -21.5 186.5t-66.5 171.5t-109.5 141t-156 95.5t-199.5 35.5q-103 0 -191.5 -36t-151 -97.5t-107.5 -143t-66.5 -173.5t-21.5 -189z" />
<glyph unicode="P" horiz-adv-x="1257" d="M82 0v1501h465q144 0 260 -42t187 -112t109 -157t40 -182v-10q1 -98 -37 -188q-40 -96 -115.5 -173.5t-198 -124.5t-274.5 -47h-319v-465h-117zM199 582h319q98 0 182 24t143 65t101 95.5t62 115.5q19 58 18 118v6q-1 74 -31.5 141t-88 120.5t-150 85t-207.5 31.5h-348 v-802z" />
<glyph unicode="Q" d="M86 745q0 115 26 223.5t81 205t132 169t186.5 114.5t238.5 42t239 -42t188 -114.5t132.5 -169t81 -205t26.5 -223.5q0 -135 -35.5 -259t-104 -227.5t-181 -171.5t-254.5 -83q12 -13 30 -24.5t33.5 -19t42 -17t40 -14t45.5 -13.5t42 -12l74 -17l-33 -116l-96 24 q-244 57 -318 205q-153 6 -273.5 71.5t-193.5 171t-111 233.5t-38 269zM209 741q0 -95 21.5 -185t66 -170.5t108.5 -140.5t155 -95t198 -35q104 0 193.5 36t153.5 97.5t109 143t67 173.5t22 189q0 121 -35 231.5t-101.5 200t-174.5 143t-242 53.5q-128 0 -233 -55 t-171 -146.5t-101.5 -204.5t-35.5 -235z" />
<glyph unicode="R" horiz-adv-x="1236" d="M82 0v1501h426q128 0 237.5 -32t194.5 -94.5t133.5 -163t48.5 -228.5q0 -178 -106 -307t-279 -180q135 -282 449 -496h-203q-233 180 -362 473q-93 -8 -273 -8h-147v-465h-119zM201 582h282q82 0 157.5 14.5t143 46.5t117 78t78.5 113.5t29 148.5q0 100 -39.5 178 t-109 126.5t-158.5 73.5t-193 25h-307v-804z" />
<glyph unicode="S" horiz-adv-x="1280" d="M68 184l84 82q109 -89 223 -138.5t260 -49.5q77 0 148 19t130 55t95 96q37 62 36 138q0 46 -28 88q-30 43 -72 74t-106.5 61t-115.5 47.5t-118 37.5q-54 15 -92 26.5t-97 34t-100.5 44.5t-88.5 56t-76 70.5t-48.5 86.5t-19.5 106q0 103 45.5 185.5t121 133t168 77 t193.5 26.5q172 0 306 -58.5t262 -164.5l-86 -82q-109 89 -222.5 138.5t-259.5 49.5q-72 0 -140.5 -19.5t-126.5 -56.5t-95.5 -97t-44.5 -134q3 -48 33.5 -91t73 -74t105.5 -60.5t112.5 -47t113.5 -36.5q52 -15 89.5 -27t96 -35t101 -45t90 -56t77.5 -70q29 -36 49 -84 q19 -46 19 -96v-5q-2 -89 -32.5 -161.5t-81.5 -121.5t-119 -82t-141.5 -48t-153.5 -15q-172 0 -304.5 58t-262.5 165z" />
<glyph unicode="T" horiz-adv-x="1392" d="M82 1384v117h1192v-117h-537v-1384h-119v1384h-536z" />
<glyph unicode="U" horiz-adv-x="1310" d="M82 514v987h119v-987q0 -110 62 -202.5t162.5 -143.5t213.5 -51q112 0 212 51t162 143.5t62 202.5v987h117v-987q0 -144 -78.5 -263.5t-205 -185t-269.5 -65.5q-107 0 -208 39t-178 105.5t-124 163.5t-47 206z" />
<glyph unicode="V" horiz-adv-x="1505" d="M66 1501h127l542 -1319l539 1319h125l-611 -1501h-108z" />
<glyph unicode="W" horiz-adv-x="2207" d="M78 1501h129l409 -1263q398 1134 416 1187h86l416 -1185l410 1261h129l-488 -1499h-90l-418 1196l-182 -512l-238 -684h-92z" />
<glyph unicode="X" horiz-adv-x="1400" d="M45 1501h145l492 -653q68 93 489 653h146l-561 -751q136 -188 264 -353l299 -397h-145l-492 651l-18 -24q-207 -283 -469 -627h-144l557 750q-99 134 -295 394t-268 357z" />
<glyph unicode="Y" horiz-adv-x="1331" d="M51 1501h133l457 -713l465 713h141l-551 -833v-668h-116v674q-109 173 -310 487z" />
<glyph unicode="Z" horiz-adv-x="1331" d="M82 0v94l969 1290h-967v117h1128v-94l-968 -1290h968v-117h-1130z" />
<glyph unicode="[" horiz-adv-x="614" d="M74 -221v1943h450v-116h-334v-1710h334v-117h-450z" />
<glyph unicode="\" horiz-adv-x="700" d="M-35 1626l107 37l649 -1788l-109 -37z" />
<glyph unicode="]" horiz-adv-x="614" d="M74 -104h334v1710h-334v116h450v-1943h-450v117z" />
<glyph unicode="^" horiz-adv-x="724" d="M59 1085l258 383h70l260 -383l-100 -65l-193 293l-196 -293z" />
<glyph unicode="_" horiz-adv-x="1234" d="M82 0v117h1038v-117h-1038z" />
<glyph unicode="`" horiz-adv-x="425" d="M55 1505l103 56l202 -349l-104 -57z" />
<glyph unicode="a" horiz-adv-x="1077" d="M37 344q0 66 26.5 117.5t67 82t96.5 50t109 26.5t110 7q167 0 324 -37q-12 148 -108 229.5t-259 81.5q-121 0 -253 -76l-56 99q147 92 312 92q150 0 247 -55q55 -28 96.5 -63.5t67 -79.5t41.5 -84t22.5 -95.5t8.5 -94.5t2 -98q0 -4 -1 -56t-1 -122q0 -79 25 -112t102 -33 v-115q-208 0 -240 144q-59 -74 -145.5 -113t-184.5 -39q-64 0 -123 13t-111 41t-91 68t-61.5 97t-22.5 125zM154 326q3 -69 49.5 -118.5t110 -71t132.5 -21.5q78 0 153.5 44t124 119t48.5 156v35q-203 45 -342 45q-52 0 -99.5 -10t-89.5 -31t-66 -59q-21 -34 -21 -77v-11z " />
<glyph unicode="b" horiz-adv-x="1079" d="M82 215v1249h121v-497q133 75 262 75q127 0 238 -62.5t178 -171.5t67 -237v-100q0 -128 -67 -237t-178 -171.5t-238 -62.5q-100 0 -195 41t-159 113v-2q-29 26 -29 63zM203 231q49 -54 118 -83t144 -29q149 0 255.5 103.5t106.5 248.5v100q0 145 -106.5 248t-255.5 103 q-158 0 -262 -107v-584z" />
<glyph unicode="c" horiz-adv-x="1064" d="M84 471v100q0 129 66 238t176.5 171t238.5 62q105 0 209.5 -51t183.5 -141l-86 -82q-64 73 -145.5 113.5t-161.5 40.5q-149 0 -255.5 -102t-106.5 -249v-100q0 -147 106.5 -249.5t255.5 -102.5q80 0 161.5 40t145.5 113l86 -82q-79 -89 -184 -139.5t-209 -50.5 q-128 0 -238.5 62t-176.5 171t-66 238z" />
<glyph unicode="d" horiz-adv-x="1079" d="M90 471v100q0 129 66.5 238t177.5 171t239 62q154 0 263 -75v497h120v-1454h-120v66q-118 -76 -263 -76q-128 0 -239 62t-177.5 171t-66.5 238zM211 471q0 -147 106.5 -249.5t255.5 -102.5q74 0 143.5 28t119.5 80v586q-53 53 -122.5 84t-140.5 31q-149 0 -255.5 -104.5 t-106.5 -252.5v-100z" />
<glyph unicode="e" horiz-adv-x="1064" d="M82 500q0 152 51.5 271.5t162 193t267.5 73.5q91 0 164.5 -27t119 -71.5t69.5 -100t24 -116.5q0 -62 -25 -119.5t-73 -104t-125.5 -74.5t-173.5 -28q-165 0 -338 39q9 -150 114 -232.5t265 -82.5q57 0 126 19t130 57l55 -107q-153 -90 -317 -90q-231 0 -363.5 134.5 t-132.5 365.5zM205 561q203 -45 338 -45q130 0 203 63t73 146q0 80 -69 138.5t-191 58.5q-94 0 -172 -51t-123.5 -132t-58.5 -178z" />
<glyph unicode="f" horiz-adv-x="870" d="M16 907v119h234v47q0 199 121.5 319.5t308.5 120.5q74 0 188 -30l-34 -113q-106 27 -150 27q-137 0 -226 -87.5t-89 -236.5v-47h366v-119h-366v-907h-119v907h-234z" />
<glyph unicode="g" horiz-adv-x="1177" d="M86 444v136q0 179 130.5 308.5t311.5 129.5q99 0 186 -40t148 -114q57 144 250 144v-117q-145 0 -145 -115l-4 -901q-2 -264 -132.5 -426t-361.5 -162q-86 0 -159.5 29.5t-123 95t-49.5 156.5q0 68 21.5 123t55 91.5t85 63.5t101.5 41.5t114.5 23t114.5 11t110 2.5 l105 -2l2 221q-64 -64 -147.5 -100.5t-170.5 -36.5q-181 0 -311.5 129.5t-130.5 308.5zM207 444q0 -132 94 -225.5t227 -93.5q115 0 213.5 85.5t104.5 199.5v-2q2 55 2 184q0 125 -98 216t-222 91q-133 0 -227 -93.5t-94 -225.5v-136zM256 -430q0 -76 60.5 -123t142.5 -47 q114 0 203.5 58t135.5 148.5t46 194.5l-113 4q-46 0 -83.5 -1.5t-89 -6.5t-90.5 -14.5t-81 -27.5t-69 -42t-44.5 -60.5t-17.5 -82.5z" />
<glyph unicode="h" horiz-adv-x="1021" d="M82 0v1464h119v-555q58 53 132.5 85t153.5 32q165 0 284.5 -116.5t119.5 -276.5v-633h-117v633q0 114 -84 194t-203 80q-118 0 -201 -80t-83 -194l-2 -633h-119z" />
<glyph unicode="i" horiz-adv-x="450" d="M139 1436q0 32 23 54.5t55 22.5q30 0 53 -22.5t23 -54.5q0 -28 -23.5 -52t-52.5 -24q-31 0 -54.5 23.5t-23.5 52.5zM158 0v1024h118v-1024h-118z" />
<glyph unicode="j" horiz-adv-x="823" d="M2 -461l31 121q99 -29 153 -29q150 0 234 86.5t84 235.5v1073h119v-1073q0 -201 -118 -320.5t-319 -119.5q-67 0 -184 26z" />
<glyph unicode="k" horiz-adv-x="1114" d="M86 0v1505h119v-624q76 101 189.5 159t240.5 58q88 0 161.5 -29t123 -94t49.5 -156q0 -256 -361 -338l426 -481h-157l-441 494v81q67 6 131.5 21t131.5 42t108 74t41 107q0 79 -63 118.5t-150 39.5q-124 0 -224 -65.5t-153 -172t-53 -229.5v-510h-119z" />
<glyph unicode="l" horiz-adv-x="593" d="M147 297v1167h119v-1167q0 -178 172 -178q59 0 135 28l37 -108q-133 -39 -172 -39q-143 0 -217 77t-74 220z" />
<glyph unicode="m" horiz-adv-x="1628" d="M94 0v999h115v-94q98 115 270 115q90 0 182 -48.5t138 -125.5q45 85 126.5 129.5t188.5 44.5q149 0 254 -104.5t105 -253.5v-662h-117v662q0 100 -71 171.5t-171 71.5q-53 0 -95 -16.5t-70 -43t-48 -67t-31 -79.5t-17 -91t-7.5 -91t-1.5 -89l-2 -428h-115v662 q0 100 -72.5 171.5t-175.5 71.5q-53 0 -95 -16.5t-69.5 -42.5t-47.5 -67t-30.5 -79t-16.5 -91t-7.5 -91.5t-1.5 -89.5l-2 -428h-115z" />
<glyph unicode="n" horiz-adv-x="1013" d="M82 0v1006h119v-97q58 53 132.5 85t153.5 32q165 0 284.5 -116.5t119.5 -276.5v-633h-117v633q0 114 -84 194t-203 80q-118 0 -201 -80t-83 -194l-2 -633h-119z" />
<glyph unicode="o" horiz-adv-x="1118" d="M86 453v127q0 121 61.5 225.5t166 165.5t225.5 61q91 0 174.5 -36.5t144 -97t97 -144t36.5 -174.5v-127q0 -121 -61 -225.5t-165.5 -166t-225.5 -61.5t-225.5 61.5t-166 166t-61.5 225.5zM203 453q0 -138 98.5 -236t237.5 -98q138 0 235.5 98t97.5 236v127 q0 137 -97.5 234t-235.5 97q-139 0 -237.5 -97t-98.5 -234v-127z" />
<glyph unicode="p" horiz-adv-x="1120" d="M86 -422v1432h117v-129q69 67 159 109t179 42q124 0 228 -61.5t164 -165.5t60 -225v-127q0 -121 -60 -225.5t-164 -166t-228 -61.5q-90 0 -181.5 40t-156.5 105v-567h-117zM205 453q0 -138 98.5 -236t237.5 -98q138 0 235.5 98t97.5 236v127q0 137 -97.5 234t-235.5 97 q-139 0 -237.5 -97t-98.5 -234v-127z" />
<glyph unicode="q" horiz-adv-x="1132" d="M86 453v127q0 185 132.5 318.5t320.5 133.5q97 0 184.5 -38t150.5 -107v123h119v-1432h-119v569q-65 -65 -156.5 -106t-178.5 -41q-124 0 -228.5 61.5t-164.5 166t-60 225.5zM203 453q0 -138 98.5 -236t237.5 -98q138 0 235.5 98t97.5 236v127q0 137 -97.5 234t-235.5 97 q-139 0 -237.5 -97t-98.5 -234v-127z" />
<glyph unicode="r" horiz-adv-x="899" d="M92 0v1024h119v-115q58 52 134 83.5t153 31.5q155 0 307 -139l-96 -74q-109 94 -211 94q-113 0 -197 -77t-90 -187v-641h-119z" />
<glyph unicode="s" horiz-adv-x="989" d="M72 160l82 80q68 -61 158 -93t171 -32q46 0 90.5 9t86.5 28t68 54t26 81q0 22 -10.5 41.5t-33 36t-46 29t-62 26t-66 22t-73.5 21.5q-53 15 -81 23.5t-75 25.5t-73 31t-59.5 36.5t-50.5 46t-29.5 56t-12.5 70.5q0 75 36 132.5t95 90.5t124 49t132 16q101 0 214 -40 t198 -115l-78 -88q-66 63 -160 96t-174 33q-64 0 -122.5 -15t-104 -56.5t-45.5 -102.5q0 -22 10 -41t34 -35.5t44.5 -28t62.5 -25.5t65.5 -21t73.5 -21q53 -15 81.5 -23.5t75.5 -25.5t73.5 -31t60 -37t50.5 -47t29.5 -57.5t12.5 -71.5q0 -74 -37 -131.5t-96 -90t-124 -49 t-130 -16.5q-101 0 -215.5 41t-195.5 119z" />
<glyph unicode="t" horiz-adv-x="784" d="M78 907v117h139v301h119v-301h342v-117h-342v-608q0 -180 176 -180q43 0 133 33l39 -113q-104 -39 -172 -39q-295 0 -295 299v608h-139z" />
<glyph unicode="u" horiz-adv-x="1046" d="M82 393v633h119v-633q0 -114 83 -194t201 -80q119 0 203 80t84 194l2 633h117v-1026h-117v117q-58 -53 -134 -85t-155 -32q-107 0 -200 53.5t-148 144t-55 195.5z" />
<glyph unicode="v" horiz-adv-x="999" d="M16 1026h131l332 -823q36 90 111.5 272t89.5 217q22 52 67 167t66 167h131l-412 -1024h-102z" />
<glyph unicode="w" horiz-adv-x="1732" d="M82 1024h121l293 -799q34 87 94.5 240t110 279.5t92.5 240.5h86l295 -760q18 47 51.5 141.5t50.5 141.5v-2q154 417 190 518h119l-371 -1024h-81l-297 766q-37 -95 -140.5 -361t-158.5 -405h-84z" />
<glyph unicode="x" horiz-adv-x="1071" d="M41 0l401 512l-401 514h147l326 -420q55 70 163.5 210.5t164.5 209.5h147l-399 -514l399 -512h-149l-326 416l-86 -111q-47 -58 -240 -305h-147z" />
<glyph unicode="y" horiz-adv-x="989" d="M61 1024h125l363 -758q11 29 52 129t63 156q98 246 184 473h121l-445 -1143q-61 -160 -147 -246q-111 -90 -279 -90v117q138 0 199 55q61 59 123 207l74 193l-207 434q-46 94 -226 473z" />
<glyph unicode="z" horiz-adv-x="917" d="M16 0v92l623 817h-623v115h783v-92l-621 -817h621v-115h-783z" />
<glyph unicode="{" horiz-adv-x="778" d="M76 694v117q98 2 141 29.5t43 95.5q0 41 -18 174l-4 33v-2q-19 162 -19 202q0 191 124 285t339 94v-116q-161 0 -253.5 -64.5t-92.5 -198.5q0 -58 20 -194l4 -33v2q19 -140 19 -182q0 -125 -76 -186q76 -64 76 -181q0 -50 -19 -176q0 -4 -2 -14.5t-2 -13.5 q-20 -126 -20 -193q0 -136 88 -206t258 -70v-117q-221 0 -342 96t-121 297q0 67 17 184q0 2 2 11.5t2 11.5q20 126 20 190q0 63 -46 93t-138 32z" />
<glyph unicode="|" horiz-adv-x="262" d="M70 -201v1903h116v-1903h-116z" />
<glyph unicode="}" horiz-adv-x="778" d="M76 -104q170 0 258 70t88 206q0 37 -19 168l-4 25q-20 122 -20 204q0 120 70 181q-35 33 -52.5 85t-17.5 101t18 182v-2q0 5 2 16.5t2 16.5q21 143 21 194q0 134 -92.5 198.5t-253.5 64.5v116q215 0 339 -94t124 -285q0 -41 -19 -202q0 -5 -2 -16t-2 -15 q-18 -133 -18 -174q0 -68 43 -95.5t141 -29.5v-117q-92 -2 -138 -32t-46 -93q0 -64 20 -190l4 -23q17 -117 17 -184q0 -201 -121 -297t-342 -96v117z" />
<glyph unicode="~" horiz-adv-x="892" d="M82 416q-6 100 39.5 167.5t128.5 67.5q80 0 207 -71q122 -66 168 -66q24 0 36 33t9 84l116 2q5 -101 -38 -167.5t-123 -66.5t-209 72h2q-126 64 -168 64q-56 0 -53 -119h-115z" />
<glyph unicode="&#xa1;" horiz-adv-x="299" d="M70 1393q0 34 22 54.5t53 20.5q34 0 55 -20t21 -55q0 -31 -21.5 -52.5t-54.5 -21.5q-30 0 -52.5 22t-22.5 52zM88 0v1100h115v-1100h-115z" />
<glyph unicode="&#xa2;" horiz-adv-x="1064" d="M78 483v101q0 198 147 342q91 91 250 131v221h119v-211q225 -18 381 -197l-90 -86q-62 70 -138 112t-153 48v-823q156 11 291 162l90 -88q-156 -183 -381 -195v-201h-119v209q-68 17 -134.5 52.5t-115.5 80.5q-147 144 -147 342zM201 483q0 -126 76.5 -221.5 t197.5 -126.5v797q-120 -33 -197 -128.5t-77 -219.5v-101z" />
<glyph unicode="&#xa3;" horiz-adv-x="1458" d="M78 664l221 47q-4 13 -8.5 26.5t-11 30.5t-9.5 27q-59 167 -59 268q0 190 124.5 311t315.5 121q109 0 216.5 -54t183.5 -153l-101 -74q-53 77 -136 119.5t-163 42.5q-138 0 -230.5 -88t-92.5 -225q0 -77 21.5 -153t62.5 -175q145 31 508 109l81 18l25 -121l-569 -120 q32 -94 32 -154q0 -154 -96 -274q18 2 58 2q79 0 223 -33q8 -4 20 -4q156 -37 226 -37q138 0 217.5 79t79.5 232h118q0 -207 -112.5 -318.5t-302.5 -111.5q-75 0 -228 35q-2 0 -8.5 1t-7.5 1q-152 39 -225 39q-142 0 -291 -88l-68 133q69 39 112 69t85 71.5t62 92t20 111.5 q0 41 -37 131q-23 -5 -108 -24t-128 -27z" />
<glyph unicode="&#xa4;" horiz-adv-x="796" d="M70 383l63 61q-57 77 -57 179q0 96 55 170l-61 65l84 80l61 -64q83 54 172 54t174 -54l64 64l82 -80l-62 -65q53 -71 53 -170q0 -102 -55 -179l64 -61l-82 -82l-66 66q-84 -50 -172 -50q-100 0 -170 48l-63 -64zM193 623q0 -43 26 -93l88 91q-6 6 -22.5 21t-24.5 24 q-9 10 -20.5 21.5t-22.5 23.5q-24 -46 -24 -88zM301 788l86 -88q17 16 45.5 46t40.5 42q-44 21 -86 21q-49 0 -86 -21zM303 451q43 -19 84 -19q38 0 86 21l-86 86zM471 621l88 -91q23 44 23 93q0 42 -23 86z" />
<glyph unicode="&#xa5;" horiz-adv-x="1331" d="M53 1501h131l457 -710l465 710h141l-489 -739h284v-119l-346 -4v-227h346v-119h-346v-293h-116v293h-324v119h324q0 18 -1 58t-1 58v115h-322v119h270q-24 38 -235 362z" />
<glyph unicode="&#xa6;" horiz-adv-x="262" d="M70 -201v863h116v-863h-116zM70 840v862h116v-862h-116z" />
<glyph unicode="&#xa7;" horiz-adv-x="1024" d="M70 35l36 112q102 -26 154 -26q141 0 232.5 89.5t91.5 242.5v847h121v-847q0 -204 -125 -328.5t-316 -124.5q-78 0 -194 35zM291 254v844q0 206 125 329t317 123q63 0 193 -30l-35 -115q-103 25 -154 25q-142 0 -232.5 -89t-90.5 -243v-844h-123z" />
<glyph unicode="&#xa8;" horiz-adv-x="622" d="M74 1231q0 34 22 56t54 22q31 0 53 -22.5t22 -55.5q0 -32 -22 -53t-53 -21q-32 0 -54 21t-22 53zM381 1231q0 34 21 56t55 22q29 0 52 -22.5t23 -55.5q0 -31 -23 -52.5t-52 -21.5q-34 0 -55 21t-21 53z" />
<glyph unicode="&#xa9;" horiz-adv-x="796" d="M111 1221q0 117 85 198.5t203 81.5q117 0 202 -82t85 -198q0 -118 -84.5 -199.5t-202.5 -81.5t-203 81.5t-85 199.5zM152 1221q0 -100 73 -170t174 -70t173.5 70t72.5 170q0 99 -73.5 169t-172.5 70q-101 0 -174 -69.5t-73 -169.5zM289 1221q0 57 31.5 96t87.5 39 q53 0 88 -35l-29 -29q-23 23 -59 23q-39 0 -58.5 -27t-19.5 -67t19.5 -68.5t58.5 -28.5q35 0 65 27l29 -29q-42 -39 -94 -39q-56 0 -87.5 40.5t-31.5 97.5z" />
<glyph unicode="&#xaa;" horiz-adv-x="565" d="M111 1161q0 55 34 82q51 39 162 27l72 -13q-6 71 -62 101q-39 19 -81 16.5t-70 -20.5l-23 35q36 23 90.5 26t102.5 -20q79 -38 84 -142l-2 -133q0 -35 37 -35v-41q-65 0 -74 58q-46 -55 -129 -58q-52 0 -90 27q-48 31 -51 90zM152 1163q3 -39 34.5 -59.5t71.5 -18.5 q50 3 86 36.5t37 92.5q-66 17 -123 17q-62 0 -88 -21q-18 -15 -18 -47z" />
<glyph unicode="&#xab;" horiz-adv-x="1001" d="M78 489v70l399 414l82 -82l-350 -371q66 -69 199 -206t151 -156l-82 -82zM432 489v70l391 410l92 -74l-354 -373l350 -366l-88 -78z" />
<glyph unicode="&#xac;" horiz-adv-x="966" d="M78 563v117h786v-416h-123v299h-663z" />
<glyph unicode="&#xad;" horiz-adv-x="700" d="M74 1190v119h532v-119h-532z" />
<glyph unicode="&#xae;" horiz-adv-x="796" d="M111 1221q0 116 84 198t204 82q118 0 202.5 -82t84.5 -198q0 -117 -84 -199t-203 -82q-120 0 -204 82t-84 199zM152 1221q0 -100 72 -170t175 -70q101 0 173.5 70t72.5 170q0 98 -72.5 168.5t-173.5 70.5q-102 0 -174.5 -70t-72.5 -169zM309 1104v252h103q47 0 76.5 -25 t29.5 -71q0 -63 -57 -86q25 -49 59 -68h-61q-26 26 -37 57h-72v-59h-41zM350 1204h58q30 0 47 12.5t19.5 22.5t2.5 21q0 8 -2 15.5t-8 17.5t-20 16t-35 6h-62v-111z" />
<glyph unicode="&#xaf;" horiz-adv-x="700" d="M74 1190v119h532v-119h-532z" />
<glyph unicode="&#xb0;" horiz-adv-x="483" d="M72 1204q0 65 48 115.5t111 50.5q65 0 115.5 -46.5t50.5 -113.5q0 -73 -47.5 -120.5t-118.5 -47.5q-62 0 -110.5 50t-48.5 112zM188 1204q0 -19 12 -31t31 -12q21 0 36.5 13.5t15.5 33.5q0 18 -14.5 30.5t-35.5 12.5q-19 0 -32 -13.5t-13 -33.5z" />
<glyph unicode="&#xb1;" horiz-adv-x="966" d="M78 387v117h334v254h-334v116h334v334h116v-334h336v-116h-336v-254h336v-117h-786z" />
<glyph unicode="&#xb4;" horiz-adv-x="425" d="M55 1212l201 349l104 -56l-202 -350z" />
<glyph unicode="&#xb5;" horiz-adv-x="1013" d="M82 -422v1448h119v-633q0 -114 83 -194t201 -80q119 0 203 80t84 194l2 633h117v-1006h-117v97q-58 -53 -134 -85t-155 -32q-78 0 -152.5 31.5t-131.5 85.5v-539h-119z" />
<glyph unicode="&#xb6;" horiz-adv-x="1957" d="M90 999q0 77 23 149t72 136.5t118.5 112.5t168 76t214.5 28h1129v-117h-320v-1384h-119v1384h-438v-1384h-119v465h-104q-121 0 -224 30t-176 81.5t-124.5 120t-76 145t-24.5 157.5z" />
<glyph unicode="&#xb7;" horiz-adv-x="299" d="M70 623q0 33 21 54t54 21q31 0 53.5 -21.5t22.5 -53.5q0 -33 -22 -53.5t-54 -20.5q-34 0 -54.5 20t-20.5 54z" />
<glyph unicode="&#xb8;" horiz-adv-x="477" d="M63 -344q138 21 179 51q34 27 34 60q0 49 -61 49h-80v88l12 73v119h117v-131l-6 -35q38 -10 90 -43q45 -39 45 -120q0 -95 -82 -154q-72 -47 -225 -76z" />
<glyph unicode="&#xba;" horiz-adv-x="548" d="M111 1208v45q0 69 47.5 117.5t115.5 48.5t116 -48.5t48 -117.5v-45q0 -68 -48 -116t-116 -48q-67 0 -115 48t-48 116zM152 1208q0 -51 35.5 -87t86.5 -36t87 36t36 87v45q0 52 -36 88.5t-87 36.5t-86.5 -36.5t-35.5 -88.5v-45z" />
<glyph unicode="&#xbb;" horiz-adv-x="1001" d="M57 895l93 74l393 -410v-70l-396 -413l-88 78l355 372q-53 55 -175 181t-182 188zM416 158l352 368q-56 59 -176 182.5t-176 182.5l84 82l395 -414v-70l-395 -413z" />
<glyph unicode="&#xbf;" horiz-adv-x="1048" d="M78 367q0 35 5 67.5t10 56.5t20 50t23 41t30.5 36.5t31 30.5t37.5 29t36.5 25t39.5 26q32 20 46 29.5t42 31t42 39.5t33 48t28.5 62.5t16.5 78.5t7 100h119q0 -67 -9 -124.5t-21.5 -99t-35.5 -79.5t-42 -61.5t-51 -49.5t-52 -39t-55 -34v2q-40 -26 -55.5 -36.5 t-46.5 -37.5t-44 -50t-24.5 -60.5t-11.5 -81.5q0 -117 75.5 -183.5t194.5 -66.5q213 0 410 188l81 -82q-223 -223 -491 -223q-170 0 -279.5 99.5t-109.5 267.5zM512 1413q0 34 21.5 55t56.5 21q28 0 52 -23t24 -53q0 -31 -23.5 -52.5t-52.5 -21.5q-32 0 -55 21t-23 53z" />
<glyph unicode="&#xc0;" d="M76 0l653 1522h94l625 -1522h-129l-154 373h-800q-10 -26 -34 -78t-26 -57q-16 -37 -53 -119t-53 -119h-123zM410 489h710q-59 148 -172 419t-172 419zM600 1995l105 57l198 -350l-104 -57z" />
<glyph unicode="&#xc1;" d="M66 0l653 1522h94l625 -1522h-129l-154 373h-801q-1 -4 -59 -135q-9 -22 -48.5 -109t-56.5 -129h-124zM399 489h711q-60 148 -172.5 419t-171.5 419zM700 1741l199 350l105 -57l-201 -348z" />
<glyph unicode="&#xc2;" d="M66 0l653 1522h94l625 -1522h-129l-154 373h-801q-1 -4 -59 -135q-9 -22 -48.5 -109t-56.5 -129h-124zM399 489h711q-60 148 -172.5 419t-171.5 419zM463 1589l256 387h74l256 -387l-101 -63l-192 291l-193 -291z" />
<glyph unicode="&#xc3;" d="M76 0l653 1522h94l625 -1522h-129l-154 373h-800q-10 -26 -34 -78t-26 -57q-16 -37 -53 -119t-53 -119h-123zM410 489h710q-59 148 -172 419t-172 419zM432 1679q-6 98 39.5 166t126.5 68q75 0 211 -72q120 -63 164 -63q27 0 38.5 31t8.5 83h117q8 -100 -36 -166.5 t-128 -66.5q-31 0 -69 11.5t-64.5 24t-73.5 36.5q-106 63 -168 63q-27 0 -40 -31.5t-11 -83.5h-115z" />
<glyph unicode="&#xc4;" d="M66 0l653 1522h94l625 -1522h-129l-154 373h-801q-1 -4 -59 -135q-9 -22 -48.5 -109t-56.5 -129h-124zM399 489h711q-60 148 -172.5 419t-171.5 419zM522 1618q0 35 21.5 55.5t54.5 20.5q32 0 54 -21t22 -55q0 -31 -22.5 -52.5t-53.5 -21.5q-32 0 -54 21.5t-22 52.5z M829 1618q0 35 21 55.5t55 20.5q31 0 53.5 -21t22.5 -55q0 -30 -23 -52t-53 -22q-33 0 -54.5 21.5t-21.5 52.5z" />
<glyph unicode="&#xc5;" d="M66 0l653 1522h94l625 -1522h-129l-154 373h-801q-1 -4 -59 -135q-9 -22 -48.5 -109t-56.5 -129h-124zM399 489h711q-60 148 -172.5 419t-171.5 419zM604 1815q0 65 48 115t112 50q66 0 117 -46t51 -113q0 -72 -49 -119t-121 -47q-62 0 -110 49t-48 111zM723 1815 q0 -18 11.5 -30.5t29.5 -12.5q21 0 35 14t14 33t-12.5 32t-32.5 13t-32.5 -14t-12.5 -35z" />
<glyph unicode="&#xc6;" horiz-adv-x="2136" d="M74 0l653 1522h1030v-119h-889q32 -76 89 -215.5t79 -192.5q95 -225 123 -295h731v-118h-686q29 -70 97.5 -227.5t101.5 -239.5h582v-115h-670l-154 373h-799q-6 -13 -59 -135q-54 -118 -106 -238h-123zM408 489h710q-59 148 -171.5 419t-172.5 419z" />
<glyph unicode="&#xc7;" horiz-adv-x="1423" d="M84 754q0 218 78.5 388t236.5 270.5t373 100.5q163 0 288.5 -50.5t256.5 -170.5l-78 -86q-114 103 -221.5 146t-245.5 43q-136 0 -245 -48.5t-180 -135t-108.5 -203t-37.5 -254.5t37.5 -255t108.5 -203.5t180 -135.5t245 -49q137 0 246 40.5t223 133.5l76 -90 q-128 -105 -249.5 -152.5t-270.5 -50.5v-33l-6 -35q38 -10 90 -43q43 -37 43 -121q0 -95 -80 -153q-72 -46 -226 -76l-22 119q137 21 178 51q35 28 35 59q0 50 -61 50h-82v88l14 69v31q-274 29 -435 232.5t-161 523.5z" />
<glyph unicode="&#xc8;" horiz-adv-x="1232" d="M90 0v1501h1036v-117h-919v-684h618v-118h-618v-465h919v-117h-1036zM449 1995l104 57l199 -350l-105 -57z" />
<glyph unicode="&#xc9;" horiz-adv-x="1232" d="M98 20v1502h1037v-117h-920v-684h619v-119h-619v-465h920v-117h-1037zM469 1702l199 350l104 -57l-199 -350z" />
<glyph unicode="&#xca;" horiz-adv-x="1232" d="M82 0v1501h1036v-117h-919v-684h618v-118h-618v-465h919v-117h-1036zM307 1753l258 387h72l256 -387l-100 -63l-193 290l-192 -290z" />
<glyph unicode="&#xcb;" horiz-adv-x="1232" d="M82 0v1501h1036v-117h-919v-684h618v-118h-618v-465h919v-117h-1036zM371 1780q0 35 21 55t54 20q32 0 54 -20.5t22 -54.5q0 -31 -22.5 -52.5t-53.5 -21.5q-32 0 -53.5 21.5t-21.5 52.5zM678 1780q0 35 21 55t55 20q31 0 53 -20.5t22 -54.5q0 -30 -22.5 -52t-52.5 -22 q-33 0 -54.5 21.5t-21.5 52.5z" />
<glyph unicode="&#xcc;" horiz-adv-x="425" d="M35 1995l102 57l203 -350l-104 -57zM180 0v1501h115v-1501h-115z" />
<glyph unicode="&#xcd;" horiz-adv-x="425" d="M121 1720l203 351l102 -58l-201 -348zM162 0v1501h117v-1501h-117z" />
<glyph unicode="&#xce;" horiz-adv-x="489" d="M-55 1671l260 387h69l261 -387l-101 -63l-194 290l-195 -290zM180 0v1501h119v-1501h-119z" />
<glyph unicode="&#xcf;" horiz-adv-x="489" d="M8 1761q0 35 21.5 55.5t54.5 20.5q32 0 54 -21t22 -55q0 -30 -22.5 -51.5t-53.5 -21.5q-32 0 -54 21t-22 52zM180 0v1501h117v-1501h-117zM315 1761q0 35 21 55.5t55 20.5q31 0 53.5 -21t22.5 -55q0 -30 -23 -51.5t-53 -21.5q-33 0 -54.5 21t-21.5 52z" />
<glyph unicode="&#xd0;" horiz-adv-x="1556" d="M-6 545v117h196v839h400q150 0 277.5 -41.5t216.5 -112.5t151.5 -166.5t92.5 -203t30 -221.5q0 -115 -30 -223.5t-93 -205.5t-152 -169.5t-215 -115t-274 -42.5h-404v545h-196zM307 115h287q125 0 231.5 36t182 98t129 144t79 174t25.5 189q0 95 -25.5 185.5t-78.5 171 t-129 140.5t-183.5 95.5t-234.5 35.5h-283v-722h238v-117h-238v-430z" />
<glyph unicode="&#xd1;" horiz-adv-x="1320" d="M82 0v1499h119l884 -1292v1294h117v-1501h-115l-886 1294v-1294h-119zM309 1659q-6 98 39.5 164.5t126.5 66.5q79 0 221 -78q116 -57 154 -57q27 0 38.5 32.5t8.5 84.5h117q8 -101 -36 -167.5t-128 -66.5q-76 0 -205 72q-118 64 -170 64q-27 0 -40 -31.5t-11 -83.5h-115z " />
<glyph unicode="&#xd2;" d="M86 752q0 114 26 222t80.5 204t131.5 167.5t187 113.5t239 42q161 0 291 -64t210.5 -171t123 -239.5t42.5 -276.5q0 -114 -26 -222t-80 -204t-131 -168t-187 -114t-239 -42q-130 0 -240.5 42t-188 114t-132.5 168.5t-81 204.5t-26 223zM203 745q0 -120 35 -230.5 t101 -200.5t173.5 -143.5t241.5 -53.5q128 0 233 54.5t170.5 145t101 203t35.5 234.5q0 96 -21.5 186.5t-66.5 171.5t-109.5 141t-156 95.5t-199.5 35.5q-103 0 -191.5 -36t-151 -97.5t-107.5 -143t-66.5 -173.5t-21.5 -189zM547 2013l102 58l203 -351l-104 -55z" />
<glyph unicode="&#xd3;" d="M86 752q0 114 26 222t80.5 204t131.5 167.5t187 113.5t239 42q161 0 291 -64t210.5 -171t123 -239.5t42.5 -276.5q0 -114 -26 -222t-80 -204t-131 -168t-187 -114t-239 -42q-130 0 -240.5 42t-188 114t-132.5 168.5t-81 204.5t-26 223zM203 745q0 -120 35 -230.5 t101 -200.5t173.5 -143.5t241.5 -53.5q128 0 233 54.5t170.5 145t101 203t35.5 234.5q0 96 -21.5 186.5t-66.5 171.5t-109.5 141t-156 95.5t-199.5 35.5q-103 0 -191.5 -36t-151 -97.5t-107.5 -143t-66.5 -173.5t-21.5 -189zM645 1702l203 350l102 -57l-200 -350z" />
<glyph unicode="&#xd4;" d="M86 752q0 114 26 222t80.5 204t131.5 167.5t187 113.5t239 42q161 0 291 -64t210.5 -171t123 -239.5t42.5 -276.5q0 -114 -26 -222t-80 -204t-131 -168t-187 -114t-239 -42q-130 0 -240.5 42t-188 114t-132.5 168.5t-81 204.5t-26 223zM203 745q0 -120 35 -230.5 t101 -200.5t173.5 -143.5t241.5 -53.5q128 0 233 54.5t170.5 145t101 203t35.5 234.5q0 96 -21.5 186.5t-66.5 171.5t-109.5 141t-156 95.5t-199.5 35.5q-103 0 -191.5 -36t-151 -97.5t-107.5 -143t-66.5 -173.5t-21.5 -189zM469 1694l260 387h70l260 -387l-101 -64 l-196 291l-193 -291z" />
<glyph unicode="&#xd5;" d="M86 752q0 114 26 222t80.5 204t131.5 167.5t187 113.5t239 42q161 0 291 -64t210.5 -171t123 -239.5t42.5 -276.5q0 -114 -26 -222t-80 -204t-131 -168t-187 -114t-239 -42q-130 0 -240.5 42t-188 114t-132.5 168.5t-81 204.5t-26 223zM203 745q0 -120 35 -230.5 t101 -200.5t173.5 -143.5t241.5 -53.5q128 0 233 54.5t170.5 145t101 203t35.5 234.5q0 96 -21.5 186.5t-66.5 171.5t-109.5 141t-156 95.5t-199.5 35.5q-103 0 -191.5 -36t-151 -97.5t-107.5 -143t-66.5 -173.5t-21.5 -189zM410 1679q-6 99 38 166.5t125 67.5q77 0 213 -72 q116 -63 162 -63q27 0 38.5 31t8.5 83h117q8 -100 -36 -166.5t-128 -66.5q-31 0 -69 11.5t-64.5 24t-73.5 36.5q-106 63 -168 63q-27 0 -40 -31.5t-11 -83.5h-112z" />
<glyph unicode="&#xd6;" d="M86 752q0 114 26 222t80.5 204t131.5 167.5t187 113.5t239 42q161 0 291 -64t210.5 -171t123 -239.5t42.5 -276.5q0 -114 -26 -222t-80 -204t-131 -168t-187 -114t-239 -42q-130 0 -240.5 42t-188 114t-132.5 168.5t-81 204.5t-26 223zM203 745q0 -120 35 -230.5 t101 -200.5t173.5 -143.5t241.5 -53.5q128 0 233 54.5t170.5 145t101 203t35.5 234.5q0 96 -21.5 186.5t-66.5 171.5t-109.5 141t-156 95.5t-199.5 35.5q-103 0 -191.5 -36t-151 -97.5t-107.5 -143t-66.5 -173.5t-21.5 -189zM528 1741q0 35 20.5 55.5t53.5 20.5q32 0 55 -21 t23 -55q0 -30 -23.5 -52t-54.5 -22q-32 0 -53 21.5t-21 52.5zM834 1741q0 35 21 55.5t54 20.5q32 0 54 -21t22 -55q0 -31 -22.5 -52.5t-53.5 -21.5q-32 0 -53.5 21.5t-21.5 52.5z" />
<glyph unicode="&#xd7;" horiz-adv-x="778" d="M59 383l238 238l-238 237l84 80l236 -236l235 236l82 -80l-235 -237l235 -238l-82 -82l-235 238l-236 -238z" />
<glyph unicode="&#xd8;" horiz-adv-x="1548" d="M86 750q0 123 26.5 234.5t81 206t132.5 163.5t187.5 108t238.5 39q108 0 200 -31q68 185 70 193l111 -37l-72 -196q95 -46 165.5 -120t112.5 -165t62 -189.5t20 -205.5q0 -155 -42 -289.5t-123 -238t-209.5 -163t-290.5 -59.5q-111 0 -205 31l-68 -195l-108 39l69 195 q-120 63 -203 175.5t-119 239.5t-36 265zM203 750q0 -114 29 -220t94.5 -200.5t160.5 -149.5l426 1182q-83 22 -161 22q-134 0 -240 -50.5t-172.5 -138t-101.5 -201t-35 -244.5zM590 139q86 -22 166 -22q133 0 239 50t173 137.5t102 201t35 244.5q0 178 -72.5 333 t-212.5 236z" />
<glyph unicode="&#xd9;" horiz-adv-x="1310" d="M92 514v987h119v-987q0 -110 62 -202.5t162.5 -143.5t213.5 -51q112 0 212 51t162 143.5t62 202.5v987h117v-987q0 -144 -78.5 -263.5t-205 -185t-269.5 -65.5q-107 0 -208 39t-178 105.5t-124 163.5t-47 206zM485 1892l105 58l201 -351l-105 -57z" />
<glyph unicode="&#xda;" horiz-adv-x="1310" d="M92 514v987h119v-987q0 -110 62 -202.5t162.5 -143.5t213.5 -51q112 0 212 51t162 143.5t62 202.5v987h117v-987q0 -144 -78.5 -263.5t-205 -185t-269.5 -65.5q-107 0 -208 39t-178 105.5t-124 163.5t-47 206zM565 1681l201 351l104 -58l-200 -350z" />
<glyph unicode="&#xdb;" horiz-adv-x="1310" d="M82 514v987h119v-987q0 -110 62 -202.5t162.5 -143.5t213.5 -51q112 0 212 51t162 143.5t62 202.5v987h117v-987q0 -144 -78.5 -263.5t-205 -185t-269.5 -65.5q-107 0 -208 39t-178 105.5t-124 163.5t-47 206zM356 1712l258 387h70l260 -387l-100 -63l-193 290l-196 -290 z" />
<glyph unicode="&#xdc;" horiz-adv-x="1310" d="M82 514v987h119v-987q0 -110 62 -202.5t162.5 -143.5t213.5 -51q112 0 212 51t162 143.5t62 202.5v987h117v-987q0 -144 -78.5 -263.5t-205 -185t-269.5 -65.5q-107 0 -208 39t-178 105.5t-124 163.5t-47 206zM410 1720q0 35 20 55.5t55 20.5q30 0 53 -21t23 -55 q0 -30 -23.5 -51.5t-52.5 -21.5q-34 0 -54.5 20.5t-20.5 52.5zM715 1720q0 35 21.5 55.5t56.5 20.5q29 0 52 -21t23 -55q0 -30 -23 -51.5t-52 -21.5q-35 0 -56.5 21t-21.5 52z" />
<glyph unicode="&#xdd;" horiz-adv-x="1331" d="M51 1501h133l457 -713l465 713h141l-551 -833v-668h-116v674q-109 173 -310 487zM496 1599l200 351l105 -58l-203 -350z" />
<glyph unicode="&#xde;" horiz-adv-x="1257" d="M82 -465v1966h117v-465h348q117 0 215.5 -27.5t168 -75.5t118 -112t71.5 -136.5t23 -149.5q0 -102 -40 -196t-115.5 -170.5t-197.5 -122.5t-272 -46h-319v-465h-117zM199 117h319q97 0 180 24t142 64.5t101 94t62.5 113.5t20.5 122q0 75 -30 143t-87 122.5t-150 87 t-210 32.5h-348v-803z" />
<glyph unicode="&#xdf;" horiz-adv-x="1024" d="M82 0v969q0 544 391 544q160 0 257 -98t97 -258q0 -49 -11 -87t-35 -65.5t-42 -42.5t-51 -36q-28 -17 -42 -29t-27 -38.5t-13 -63.5q0 -34 20 -69t40 -56t59 -58q35 -33 51 -49.5t45 -52t43 -64.5t25.5 -72.5t11.5 -90.5q0 -93 -48.5 -163.5t-124.5 -105t-165 -34.5 q-87 0 -196 36l34 111q114 -31 162 -31q92 0 158.5 50.5t66.5 136.5q0 41 -11 76.5t-37 69.5t-44 52.5t-55 53.5q-38 36 -58 57t-44.5 55t-35.5 70t-11 78q0 49 10 85t31.5 61.5t41 39.5t52.5 33q60 48 69 57q15 47 15 86q0 110 -65.5 177t-172.5 67q-274 0 -274 -432v-969 h-117z" />
<glyph unicode="&#xe0;" horiz-adv-x="1126" d="M35 340q0 66 26.5 117.5t67 82t96.5 50t109 26.5t110 7q167 0 324 -37q-12 148 -108 229.5t-259 81.5q-122 0 -254 -76l-55 99q147 92 311 92q150 0 248 -56q55 -28 96.5 -63.5t67 -79t41.5 -84t22.5 -95.5t8.5 -94t2 -98q0 -4 -1 -56t-1 -122q0 -79 25 -112t102 -33 v-115q-208 0 -240 143q-59 -74 -145 -112.5t-185 -38.5q-64 0 -123 13t-111 41t-91 68t-61.5 97t-22.5 125zM152 322q3 -69 49.5 -118.5t110 -71t132.5 -21.5q78 0 153.5 44t124 119t48.5 156v35q-203 45 -342 45q-52 0 -99.5 -10t-89.5 -31t-66 -59t-21 -88zM344 1550 l100 56l199 -342l-102 -56z" />
<glyph unicode="&#xe1;" horiz-adv-x="1044" d="M35 340q0 66 26.5 117.5t67 82t96.5 50t109 26.5t110 7q167 0 324 -37q-12 148 -108 229.5t-259 81.5q-122 0 -254 -76l-55 99q147 92 311 92q150 0 248 -56q55 -28 96.5 -63.5t67 -79t41.5 -84t22.5 -95.5t8.5 -94t2 -98q0 -4 -1 -56t-1 -122q0 -79 25 -112t102 -33 v-115q-208 0 -240 143q-59 -74 -145 -112.5t-185 -38.5q-64 0 -123 13t-111 41t-91 68t-61.5 97t-22.5 125zM152 322q3 -69 49.5 -118.5t110 -71t132.5 -21.5q78 0 153.5 44t124 119t48.5 156v35q-203 45 -342 45q-52 0 -99.5 -10t-89.5 -31t-66 -59t-21 -88zM467 1202 l197 342l102 -55l-199 -342z" />
<glyph unicode="&#xe2;" horiz-adv-x="1048" d="M35 340q0 66 26.5 117.5t67 82t96.5 50t109 26.5t110 7q167 0 324 -37q-12 148 -108 229.5t-259 81.5q-122 0 -254 -76l-55 99q147 92 311 92q150 0 248 -56q55 -28 96.5 -63.5t67 -79t41.5 -84t22.5 -95.5t8.5 -94t2 -98q0 -4 -1 -56t-1 -122q0 -79 25 -112t102 -33 v-115q-208 0 -240 143q-59 -74 -145 -112.5t-185 -38.5q-64 0 -123 13t-111 41t-91 68t-61.5 97t-22.5 125zM152 322q3 -69 49.5 -118.5t110 -71t132.5 -21.5q78 0 153.5 44t124 119t48.5 156v35q-203 45 -342 45q-52 0 -99.5 -10t-89.5 -31t-66 -59t-21 -88zM156 1212 l252 377h69l252 -375l-98 -65l-189 287q-33 -48 -98 -148.5t-92 -140.5z" />
<glyph unicode="&#xe3;" horiz-adv-x="1056" d="M35 340q0 66 26.5 117.5t67 82t96.5 50t109 26.5t110 7q167 0 324 -37q-12 148 -108 229.5t-259 81.5q-122 0 -254 -76l-55 99q147 92 311 92q150 0 248 -56q55 -28 96.5 -63.5t67 -79t41.5 -84t22.5 -95.5t8.5 -94t2 -98q0 -4 -1 -56t-1 -122q0 -79 25 -112t102 -33 v-115q-208 0 -240 143q-59 -74 -145 -112.5t-185 -38.5q-64 0 -123 13t-111 41t-91 68t-61.5 97t-22.5 125zM147 1141q-6 95 39 161t125 66q82 0 203 -68q110 -63 164 -63q24 0 35 32t8 81h117q8 -98 -35.5 -163t-124.5 -65q-72 0 -201 70q-116 63 -166 63q-52 0 -49 -114 h-115zM152 322q3 -69 49.5 -118.5t110 -71t132.5 -21.5q78 0 153.5 44t124 119t48.5 156v35q-203 45 -342 45q-52 0 -99.5 -10t-89.5 -31t-66 -59t-21 -88z" />
<glyph unicode="&#xe4;" horiz-adv-x="1056" d="M35 340q0 66 26.5 117.5t67 82t96.5 50t109 26.5t110 7q167 0 324 -37q-12 148 -108 229.5t-259 81.5q-122 0 -254 -76l-55 99q147 92 311 92q150 0 248 -56q55 -28 96.5 -63.5t67 -79t41.5 -84t22.5 -95.5t8.5 -94t2 -98q0 -4 -1 -56t-1 -122q0 -79 25 -112t102 -33 v-115q-208 0 -240 143q-59 -74 -145 -112.5t-185 -38.5q-64 0 -123 13t-111 41t-91 68t-61.5 97t-22.5 125zM152 322q3 -69 49.5 -118.5t110 -71t132.5 -21.5q78 0 153.5 44t124 119t48.5 156v35q-203 45 -342 45q-52 0 -99.5 -10t-89.5 -31t-66 -59t-21 -88zM233 1202 q0 32 20 53t52 21q31 0 53.5 -21t22.5 -53t-22.5 -53t-53.5 -21q-32 0 -52 21t-20 53zM530 1202q0 32 21 53t53 21q31 0 53.5 -21t22.5 -53t-22.5 -53t-53.5 -21q-32 0 -53 21t-21 53z" />
<glyph unicode="&#xe5;" horiz-adv-x="1060" d="M35 340q0 66 26.5 117.5t67 82t96.5 50t109 26.5t110 7q167 0 324 -37q-12 148 -108 229.5t-259 81.5q-122 0 -254 -76l-55 99q147 92 311 92q150 0 248 -56q55 -28 96.5 -63.5t67 -79t41.5 -84t22.5 -95.5t8.5 -94t2 -98q0 -4 -1 -56t-1 -122q0 -79 25 -112t102 -33 v-115q-208 0 -240 143q-59 -74 -145 -112.5t-185 -38.5q-64 0 -123 13t-111 41t-91 68t-61.5 97t-22.5 125zM152 322q3 -69 49.5 -118.5t110 -71t132.5 -21.5q78 0 153.5 44t124 119t48.5 156v35q-203 45 -342 45q-52 0 -99.5 -10t-89.5 -31t-66 -59t-21 -88zM289 1294 q0 62 46.5 112t108.5 50q64 0 114 -45.5t50 -110.5q0 -70 -47.5 -116.5t-116.5 -46.5q-62 0 -108.5 47.5t-46.5 109.5zM403 1294q0 -17 12 -30t29 -13q21 0 35.5 13.5t14.5 33.5q0 17 -13 30t-32 13t-32.5 -14t-13.5 -33z" />
<glyph unicode="&#xe6;" horiz-adv-x="1835" d="M98 338q0 68 25 120.5t64 83.5t93.5 51t107.5 27t112 7q133 0 329 -37q-17 147 -116.5 229t-241.5 82q-143 0 -258 -76l-57 99q147 92 313 92q142 0 254 -55.5t168 -167.5q62 106 170.5 167.5t234.5 61.5q176 0 273.5 -91.5t97.5 -217.5q0 -61 -24.5 -117.5t-71 -102 t-122 -73t-169.5 -27.5q-165 0 -330 39q18 -147 119 -230t240 -83q136 0 260 76l57 -101q-137 -88 -313 -88q-129 0 -244.5 59t-179.5 162q-54 -111 -163 -169t-245 -58q-157 0 -270 92.5t-113 245.5zM213 344q0 -107 79 -168t191 -61q156 0 250.5 100t100.5 254 q-194 43 -334 43q-51 0 -96 -6.5t-91 -23.5t-73 -52t-27 -86zM946 553q188 -45 334 -45q127 0 199.5 61t72.5 142q0 79 -68 136.5t-188 57.5q-143 0 -243.5 -93.5t-106.5 -258.5z" />
<glyph unicode="&#xe7;" horiz-adv-x="1064" d="M84 471v100q0 129 66 238t176.5 171t238.5 62q105 0 209.5 -51t183.5 -141l-86 -82q-64 73 -145.5 113.5t-161.5 40.5q-149 0 -255.5 -102t-106.5 -249v-100q0 -147 106.5 -249.5t255.5 -102.5q80 0 161.5 40t145.5 113l84 -79q-73 -85 -164.5 -135t-185.5 -58v-33 l-6 -37q42 -11 86 -39q45 -38 45 -118q0 -93 -78 -150q-66 -47 -219 -74l-24 117q122 16 178 49h-2q30 23 30 58q0 49 -61 49h-76v84l13 71v27q-171 30 -289.5 161.5t-118.5 305.5z" />
<glyph unicode="&#xe8;" horiz-adv-x="1064" d="M82 500q0 152 51.5 271.5t162 193t267.5 73.5q91 0 164.5 -27t119 -71.5t69.5 -100t24 -116.5q0 -62 -25 -119.5t-73 -104t-125.5 -74.5t-173.5 -28q-165 0 -338 39q9 -150 114 -232.5t265 -82.5q57 0 126 19t130 57l55 -107q-153 -90 -317 -90q-231 0 -363.5 134.5 t-132.5 365.5zM205 561q203 -45 338 -45q130 0 203 63t73 146q0 80 -69 138.5t-191 58.5q-94 0 -172 -51t-123.5 -132t-58.5 -178zM360 1468l103 56l196 -342l-102 -56z" />
<glyph unicode="&#xe9;" horiz-adv-x="1064" d="M82 500q0 152 51.5 271.5t162 193t267.5 73.5q91 0 164.5 -27t119 -71.5t69.5 -100t24 -116.5q0 -62 -25 -119.5t-73 -104t-125.5 -74.5t-173.5 -28q-165 0 -338 39q9 -150 114 -232.5t265 -82.5q57 0 126 19t130 57l55 -107q-153 -90 -317 -90q-231 0 -363.5 134.5 t-132.5 365.5zM205 561q203 -45 338 -45q130 0 203 63t73 146q0 80 -69 138.5t-191 58.5q-94 0 -172 -51t-123.5 -132t-58.5 -178zM360 1182l197 342l102 -56l-196 -342z" />
<glyph unicode="&#xea;" horiz-adv-x="1064" d="M82 500q0 152 51.5 271.5t162 193t267.5 73.5q91 0 164.5 -27t119 -71.5t69.5 -100t24 -116.5q0 -62 -25 -119.5t-73 -104t-125.5 -74.5t-173.5 -28q-165 0 -338 39q9 -150 114 -232.5t265 -82.5q57 0 126 19t130 57l55 -107q-153 -90 -317 -90q-231 0 -363.5 134.5 t-132.5 365.5zM205 561q203 -45 338 -45q130 0 203 63t73 146q0 80 -69 138.5t-191 58.5q-94 0 -172 -51t-123.5 -132t-58.5 -178zM246 1188l256 379h69l256 -379l-98 -66l-190 289l-195 -289z" />
<glyph unicode="&#xeb;" horiz-adv-x="1064" d="M82 500q0 152 51.5 271.5t162 193t267.5 73.5q91 0 164.5 -27t119 -71.5t69.5 -100t24 -116.5q0 -62 -25 -119.5t-73 -104t-125.5 -74.5t-173.5 -28q-165 0 -338 39q9 -150 114 -232.5t265 -82.5q57 0 126 19t130 57l55 -107q-153 -90 -317 -90q-231 0 -363.5 134.5 t-132.5 365.5zM205 561q203 -45 338 -45q130 0 203 63t73 146q0 80 -69 138.5t-191 58.5q-94 0 -172 -51t-123.5 -132t-58.5 -178zM287 1202q0 32 20.5 53t52.5 21q29 0 52.5 -21.5t23.5 -52.5t-23.5 -52.5t-52.5 -21.5q-32 0 -52.5 21t-20.5 53zM586 1202q0 32 20.5 53 t52.5 21q29 0 52.5 -21.5t23.5 -52.5t-23.5 -52.5t-52.5 -21.5q-32 0 -52.5 21t-20.5 53z" />
<glyph unicode="&#xec;" horiz-adv-x="425" d="M55 1468l103 56l196 -342l-102 -56zM145 0v1024h119v-1024h-119z" />
<glyph unicode="&#xed;" horiz-adv-x="425" d="M55 1182l197 342l102 -56l-196 -342zM145 0v1024h119v-1024h-119z" />
<glyph unicode="&#xee;" horiz-adv-x="458" d="M-63 1171l253 377h68l252 -374l-98 -66l-189 287q-18 -27 -188 -289zM164 0v1024h121v-1024h-121z" />
<glyph unicode="&#xef;" horiz-adv-x="442" d="M-12 1202q0 32 21.5 53t53.5 21q29 0 51.5 -21.5t22.5 -52.5t-22.5 -52.5t-51.5 -21.5q-32 0 -53.5 21t-21.5 53zM154 0v1024h118v-1024h-118zM289 1202q0 32 20.5 53t52.5 21q29 0 52.5 -21.5t23.5 -52.5t-23.5 -52.5t-52.5 -21.5q-32 0 -52.5 21t-20.5 53z" />
<glyph unicode="&#xf0;" horiz-adv-x="1236" d="M90 485q19 199 155.5 326t336.5 127q118 0 214 -37.5t154 -107.5v2q10 -11 37 -52q4 54 4 80q0 77 -12.5 148t-40.5 137t-69.5 116t-103.5 83t-138 41l-60 -168l-106 37l47 131q-101 -14 -223 -68l-39 104q161 77 303 80l55 150l105 -37l-43 -117q97 -8 172.5 -47 t124.5 -99t81 -141t45 -167.5t13 -184.5q0 -210 -68 -395q-64 -174 -195.5 -290t-306.5 -116q-136 0 -241 57.5t-159 164t-42 243.5zM205 477q-15 -152 79.5 -248t250.5 -96q138 0 238 88.5t153 231.5l-2 -4q6 43 6 71q0 110 -70 197q-45 46 -121.5 75t-160.5 29 q-155 0 -256.5 -94t-116.5 -250z" />
<glyph unicode="&#xf1;" horiz-adv-x="1013" d="M82 0v1006h119v-97q58 53 132.5 85t153.5 32q165 0 284.5 -116.5t119.5 -276.5v-633h-117v633q0 114 -84 194t-203 80q-118 0 -201 -80t-83 -194l-2 -633h-119zM141 1120q-6 96 39 163t125 67q71 0 203 -70q116 -63 164 -63q24 0 35 31.5t8 80.5h116q6 -97 -36 -161 t-123 -64q-80 0 -203 67q-108 64 -164 64q-27 0 -40 -31.5t-11 -83.5h-113z" />
<glyph unicode="&#xf2;" horiz-adv-x="1118" d="M86 453v127q0 121 61.5 225.5t166 165.5t225.5 61q91 0 174.5 -36.5t144 -97t97 -144t36.5 -174.5v-127q0 -121 -61 -225.5t-165.5 -166t-225.5 -61.5t-225.5 61.5t-166 166t-61.5 225.5zM203 453q0 -138 98.5 -236t237.5 -98q138 0 235.5 98t97.5 236v127 q0 137 -97.5 234t-235.5 97q-139 0 -237.5 -97t-98.5 -234v-127zM389 1468l103 56l194 -342l-100 -56z" />
<glyph unicode="&#xf3;" horiz-adv-x="1118" d="M86 453v127q0 121 61.5 225.5t166 165.5t225.5 61q91 0 174.5 -36.5t144 -97t97 -144t36.5 -174.5v-127q0 -121 -61 -225.5t-165.5 -166t-225.5 -61.5t-225.5 61.5t-166 166t-61.5 225.5zM203 453q0 -138 98.5 -236t237.5 -98q138 0 235.5 98t97.5 236v127 q0 137 -97.5 234t-235.5 97q-139 0 -237.5 -97t-98.5 -234v-127zM389 1182l197 342l100 -56l-194 -342z" />
<glyph unicode="&#xf4;" horiz-adv-x="1118" d="M86 453v127q0 121 61.5 225.5t166 165.5t225.5 61q91 0 174.5 -36.5t144 -97t97 -144t36.5 -174.5v-127q0 -121 -61 -225.5t-165.5 -166t-225.5 -61.5t-225.5 61.5t-166 166t-61.5 225.5zM203 453q0 -138 98.5 -236t237.5 -98q138 0 235.5 98t97.5 236v127 q0 137 -97.5 234t-235.5 97q-139 0 -237.5 -97t-98.5 -234v-127zM250 1171l254 377h67l254 -374l-98 -66l-188 287q-70 -103 -189 -287z" />
<glyph unicode="&#xf5;" horiz-adv-x="1118" d="M86 453v127q0 121 61.5 225.5t166 165.5t225.5 61q91 0 174.5 -36.5t144 -97t97 -144t36.5 -174.5v-127q0 -121 -61 -225.5t-165.5 -166t-225.5 -61.5t-225.5 61.5t-166 166t-61.5 225.5zM188 1120q-3 97 42 163.5t122 66.5q76 0 205 -70q113 -63 162 -63q25 0 36.5 31 t8.5 81h115q8 -97 -35.5 -161t-124.5 -64q-74 0 -201 67q-112 64 -166 64q-25 0 -38 -31.5t-11 -83.5h-115zM203 453q0 -138 98.5 -236t237.5 -98q138 0 235.5 98t97.5 236v127q0 137 -97.5 234t-235.5 97q-139 0 -237.5 -97t-98.5 -234v-127z" />
<glyph unicode="&#xf6;" horiz-adv-x="1118" d="M86 453v127q0 121 61.5 225.5t166 165.5t225.5 61q91 0 174.5 -36.5t144 -97t97 -144t36.5 -174.5v-127q0 -121 -61 -225.5t-165.5 -166t-225.5 -61.5t-225.5 61.5t-166 166t-61.5 225.5zM203 453q0 -138 98.5 -236t237.5 -98q138 0 235.5 98t97.5 236v127 q0 137 -97.5 234t-235.5 97q-139 0 -237.5 -97t-98.5 -234v-127zM313 1284q0 32 21 53t55 21q29 0 51.5 -21.5t22.5 -52.5t-22.5 -52.5t-51.5 -21.5q-34 0 -55 21t-21 53zM612 1284q0 32 21 53t55 21q29 0 51.5 -21.5t22.5 -52.5t-22.5 -52.5t-51.5 -21.5q-34 0 -55 21 t-21 53z" />
<glyph unicode="&#xf7;" horiz-adv-x="446" d="M141 76q0 34 21.5 55t56.5 21q29 0 52.5 -22t23.5 -54q0 -30 -23.5 -52t-52.5 -22q-35 0 -56.5 21.5t-21.5 52.5zM141 678q0 34 21.5 55t56.5 21q29 0 52.5 -22t23.5 -54q0 -31 -23.5 -52.5t-52.5 -21.5q-35 0 -56.5 20.5t-21.5 53.5z" />
<glyph unicode="&#xf8;" horiz-adv-x="1118" d="M86 453v127q0 189 132 320.5t321 131.5q70 0 118 -14q5 15 19 59t20 64l111 -37l-47 -129q109 -60 170 -165t61 -230v-127q0 -121 -60 -225.5t-164 -166t-228 -61.5q-65 0 -129 20q-9 -31 -48 -135l-106 37l49 137q-101 62 -160 167t-59 227zM203 453q0 -85 38.5 -159 t106.5 -120q38 108 127 352.5t137 378.5q-25 6 -73 6q-139 0 -237.5 -97t-98.5 -234v-127zM449 129q45 -10 90 -10q138 0 235.5 98t97.5 236v127q0 85 -42 159.5t-115 120.5q-40 -111 -129 -353t-137 -378z" />
<glyph unicode="&#xf9;" horiz-adv-x="1013" d="M82 393v633h119v-633q0 -114 83 -194t201 -80q119 0 203 80t84 194l2 633h117v-1026h-117v117q-58 -53 -134 -85t-155 -32q-107 0 -200 53.5t-148 144t-55 195.5zM338 1468l100 56l197 -342l-103 -56z" />
<glyph unicode="&#xfa;" horiz-adv-x="1013" d="M102 393v633h119v-633q0 -114 83 -194t202 -80t203 80t84 194l2 633h116v-1026h-116v117q-58 -53 -134 -85t-155 -32q-164 0 -284 116.5t-120 276.5zM338 1182l197 342l102 -56l-199 -342z" />
<glyph unicode="&#xfb;" horiz-adv-x="1013" d="M92 393v633h119v-633q0 -114 83 -194t202 -80t202.5 80t83.5 194l2 633h117v-1026h-117v117q-58 -53 -133.5 -85t-154.5 -32q-163 0 -283.5 117t-120.5 276zM217 1171l252 377h68l254 -374l-101 -66l-188 287q-32 -48 -97 -148t-92 -141z" />
<glyph unicode="&#xfc;" horiz-adv-x="1046" d="M109 393v633h118v-633q0 -114 83 -194t202 -80t203 80t84 194l2 633h117v-1026h-117v117q-58 -53 -134 -85t-155 -32q-164 0 -283.5 116.5t-119.5 276.5zM283 1214q0 34 20.5 56t52.5 22q30 0 53 -22.5t23 -55.5q0 -30 -23 -50.5t-53 -20.5q-32 0 -52.5 20t-20.5 51z M586 1214q0 34 20 56t53 22q29 0 52.5 -22.5t23.5 -55.5q0 -30 -23.5 -50.5t-52.5 -20.5q-33 0 -53 20t-20 51z" />
<glyph unicode="&#xfd;" horiz-adv-x="1079" d="M61 1024h125l363 -758q11 29 52 129t63 156q98 246 184 473h121l-445 -1143q-61 -160 -147 -246q-111 -90 -279 -90v117q138 0 199 55q61 59 123 207l74 193l-207 434q-46 94 -226 473zM369 1182l196 342l101 -56l-195 -342z" />
<glyph unicode="&#xfe;" horiz-adv-x="1071" d="M82 -393v1857h121v-497q133 75 262 75q127 0 238 -62.5t178 -171.5t67 -237v-100q0 -128 -67 -237t-178 -171.5t-238 -62.5q-144 0 -262 76v-469h-121zM203 231q49 -54 118 -83t144 -29q149 0 255.5 103.5t106.5 248.5v100q0 145 -106.5 248t-255.5 103q-158 0 -262 -107 v-584z" />
<glyph unicode="&#xff;" horiz-adv-x="1079" d="M61 1024h125l363 -758q11 29 52 129t63 156q98 246 184 473h121l-445 -1143q-61 -160 -147 -246q-111 -90 -279 -90v117q138 0 199 55q61 59 123 207l74 193l-207 434q-46 94 -226 473zM293 1202q0 32 22 53t54 21q29 0 51 -21.5t22 -52.5t-22 -52.5t-51 -21.5 q-32 0 -54 21t-22 53zM594 1202q0 32 21 53t53 21q29 0 52 -21.5t23 -52.5t-23 -52.5t-52 -21.5q-32 0 -53 21t-21 53z" />
<glyph unicode="&#x152;" horiz-adv-x="2510" d="M98 752q0 114 26 222t80.5 204t131.5 167.5t187 113.5t239 42q368 0 547 -299v299h1038v-117h-922v-684h621v-118h-621v-465h922v-117h-1038v297q-86 -139 -222.5 -218t-320.5 -79q-130 0 -240.5 42t-188 114t-132.5 168.5t-81 204.5t-26 223zM215 745q0 -120 35 -230.5 t101 -200.5t173.5 -143.5t241.5 -53.5q128 0 233 54.5t171 145t101.5 203t35.5 234.5q0 96 -21.5 186.5t-66.5 171.5t-109.5 141t-156 95.5t-199.5 35.5q-103 0 -191.5 -36t-151.5 -97.5t-108 -143t-66.5 -173.5t-21.5 -189z" />
<glyph unicode="&#x153;" horiz-adv-x="1921" d="M98 453v127q0 91 36.5 174.5t97.5 144t145.5 97t175.5 36.5q120 0 226 -69t171 -175q57 119 163 184.5t257 65.5q92 0 165.5 -27t118.5 -71.5t69 -100t24 -116.5q0 -62 -25 -119.5t-72 -104t-124.5 -74.5t-173.5 -28q-167 0 -340 39q9 -150 114 -232.5t265 -82.5 q58 0 127 19t129 57l55 -107q-153 -90 -318 -90q-151 0 -263 61t-171 172q-58 -108 -163 -170.5t-234 -62.5q-122 0 -227 61.5t-166.5 166t-61.5 225.5zM219 453q0 -138 98 -236t236 -98t236 98t98 236v127q0 137 -98 234t-236 97t-236 -97t-98 -234v-127zM1012 561 q203 -45 340 -45q129 0 201.5 63t72.5 146q0 79 -68.5 138t-189.5 59q-142 0 -240 -106t-116 -255z" />
<glyph unicode="&#x178;" horiz-adv-x="1331" d="M51 1501h133l457 -713l465 713h141l-551 -833v-668h-116v674q-109 173 -310 487zM420 1618q0 35 20.5 55.5t55.5 20.5q29 0 52 -21t23 -55q0 -30 -23 -52t-52 -22q-34 0 -55 21t-21 53zM725 1618q0 35 21.5 55.5t56.5 20.5q30 0 53 -21t23 -55q0 -30 -23.5 -52t-52.5 -22 q-35 0 -56.5 21.5t-21.5 52.5z" />
<glyph unicode="&#x2c6;" horiz-adv-x="724" d="M59 1202l258 385h70l260 -385l-100 -65l-193 290l-196 -290z" />
<glyph unicode="&#x2dc;" horiz-adv-x="892" d="M82 1149q-6 99 40 167t128 68q31 0 70 -12t65.5 -24.5t73.5 -36.5q111 -66 166 -66q24 0 36 34t9 83h116q5 -100 -38.5 -166t-122.5 -66q-82 0 -211 72q-118 64 -164 64q-57 0 -53 -117h-115z" />
<glyph unicode="&#x2000;" horiz-adv-x="1070" />
<glyph unicode="&#x2001;" horiz-adv-x="2140" />
<glyph unicode="&#x2002;" horiz-adv-x="1070" />
<glyph unicode="&#x2003;" horiz-adv-x="2140" />
<glyph unicode="&#x2004;" horiz-adv-x="713" />
<glyph unicode="&#x2005;" horiz-adv-x="535" />
<glyph unicode="&#x2006;" horiz-adv-x="356" />
<glyph unicode="&#x2007;" horiz-adv-x="356" />
<glyph unicode="&#x2008;" horiz-adv-x="267" />
<glyph unicode="&#x2009;" horiz-adv-x="428" />
<glyph unicode="&#x200a;" horiz-adv-x="118" />
<glyph unicode="&#x2010;" horiz-adv-x="966" d="M78 467v117h786v-117h-786z" />
<glyph unicode="&#x2011;" horiz-adv-x="966" d="M78 467v117h786v-117h-786z" />
<glyph unicode="&#x2012;" horiz-adv-x="966" d="M78 467v117h786v-117h-786z" />
<glyph unicode="&#x2013;" horiz-adv-x="966" d="M78 467v117h786v-117h-786z" />
<glyph unicode="&#x2014;" horiz-adv-x="1718" d="M197 467v117h1497v-117h-1497z" />
<glyph unicode="&#x2018;" horiz-adv-x="321" d="M72 1358q10 74 90 160l82 -82q-54 -64 -54 -86q-4 -16 -2 -29q22 -7 39 -26t17 -44q0 -31 -23.5 -53t-52.5 -22q-47 0 -70 41q-32 55 -26 141z" />
<glyph unicode="&#x2019;" horiz-adv-x="321" d="M70 1241q46 52 53 88v25q-23 5 -38 24.5t-15 46.5q0 32 22.5 54t52.5 22q43 0 66 -41l2 2q35 -58 29 -143q-9 -70 -90 -158z" />
<glyph unicode="&#x201a;" horiz-adv-x="321" d="M70 68q41 49 53 88v24q-22 6 -37.5 26t-15.5 46q0 32 22.5 54t52.5 22q19 0 37.5 -11.5t28.5 -31.5l2 2q36 -55 29 -142q-9 -72 -90 -159z" />
<glyph unicode="&#x201c;" horiz-adv-x="514" d="M74 1358q9 73 90 160l82 -82q-50 -56 -56 -88q-2 -6 -2 -25q25 -8 41.5 -27.5t16.5 -44.5q0 -32 -23.5 -53.5t-54.5 -21.5q-45 0 -68 41q-30 50 -26 141zM256 1354q9 72 90 159l82 -81q-50 -56 -53 -91q-2 -6 -2 -22q23 -6 39 -26.5t16 -45.5q0 -32 -23 -54t-53 -22 q-47 0 -65 41h-2q-36 55 -29 142z" />
<glyph unicode="&#x201d;" horiz-adv-x="514" d="M72 1241q43 49 55 88v25q-25 6 -40 25t-15 46q0 32 23.5 54t54.5 22q16 0 34.5 -11.5t30.5 -29.5l2 2q33 -59 27 -143q-9 -73 -88 -158zM254 1239q48 48 55 86v25q-23 8 -39 27t-16 44q0 31 23.5 53.5t52.5 22.5q19 0 38 -11.5t29 -29.5l2 2q33 -59 27 -143 q-10 -74 -90 -158z" />
<glyph unicode="&#x201e;" horiz-adv-x="514" d="M72 70q45 51 55 88v24q-55 9 -55 72q0 32 23.5 54t54.5 22q16 0 35 -12t30 -31l2 2q33 -57 27 -142q-9 -74 -88 -159zM254 66q44 47 55 88v24q-24 8 -39.5 27t-15.5 45q0 31 23.5 53.5t52.5 22.5q21 0 40.5 -11.5t28.5 -29.5q33 -57 27 -142q-10 -73 -90 -159z" />
<glyph unicode="&#x2022;" horiz-adv-x="376" d="M70 623q0 49 32 79.5t82 30.5q45 0 79 -31t34 -79q0 -46 -34.5 -78.5t-78.5 -32.5q-49 0 -81.5 32t-32.5 79z" />
<glyph unicode="&#x2026;" horiz-adv-x="946" d="M78 76q0 33 21.5 54.5t54.5 21.5q31 0 53 -21.5t22 -54.5q0 -31 -22 -52.5t-53 -21.5q-32 0 -54 21.5t-22 52.5zM385 76q0 34 21 55t55 21q30 0 53 -21.5t23 -54.5q0 -30 -23 -52t-53 -22q-33 0 -54.5 21.5t-21.5 52.5zM692 76q0 34 20.5 55t55.5 21q29 0 52.5 -22 t23.5 -54q0 -30 -23.5 -52t-52.5 -22q-34 0 -55 21t-21 53z" />
<glyph unicode="&#x202f;" horiz-adv-x="428" />
<glyph unicode="&#x2039;" horiz-adv-x="628" d="M74 489v70l393 410l92 -74l-356 -373l352 -366l-88 -78z" />
<glyph unicode="&#x203a;" horiz-adv-x="628" d="M53 895l92 74l394 -410v-70l-396 -413l-88 78l355 372q-53 55 -175 181t-182 188z" />
<glyph unicode="&#x205f;" horiz-adv-x="535" />
<glyph unicode="&#x20ac;" horiz-adv-x="1652" d="M86 524v117h221q-4 37 -4 113q0 83 4 120h-221v119h246q57 238 228 379t433 141q156 0 289 -52.5t256 -168.5l-78 -86q-113 102 -222.5 145.5t-244.5 43.5q-209 0 -346 -109t-194 -293h518v-119h-543q-6 -65 -6 -122q0 -52 6 -111h543v-117h-518q61 -182 201 -297.5 t339 -115.5q132 0 243.5 40t225.5 134l76 -92q-133 -107 -262.5 -154t-282.5 -47q-265 0 -436 144.5t-227 387.5h-244z" />
<glyph unicode="&#x2122;" horiz-adv-x="1050" d="M59 1427v74h390v-74h-158v-407h-74v407h-158zM467 1020l51 481h62l139 -235q18 31 68 112t75 123h64l49 -481h-74l-37 336l-119 -195h-51l-116 193l-37 -334h-74z" />
<glyph unicode="&#x25fc;" horiz-adv-x="1024" d="M0 0v1024h1024v-1024h-1024z" />
</font>
</defs>
</svg>
